<svg xmlns="http://www.w3.org/2000/svg" xmlns:xlink="http://www.w3.org/1999/xlink" data-v-0dd9719b="" version="1.0" width="220" height="100" viewBox="60 80 220 90" preserveAspectRatio="xMidYMid meet" color-interpolation-filters="sRGB" style="margin: auto;">   <g data-v-0dd9719b="" fill="#333" class="icon-text-wrapper icon-svg-group iconsvg" transform="translate(73.16000366210938,93.65375137329102)"><g class="iconsvg-imagesvg" transform="translate(0,1.357645034790039)"><g><rect fill="#333" fill-opacity="0" stroke-width="2" x="0" y="0" width="60" height="59.977208660708925" class="image-rect"/> <svg x="0" y="0" width="60" height="59.977208660708925" filtersec="colorsb3716824521" class="image-svg-svg primary" style="overflow: visible;"><svg xmlns="http://www.w3.org/2000/svg" viewBox="-0.024392234161496162 -0.00439166696742177 206.4888916015625 206.41061401367188"><title>资源 7</title><g fill-rule="evenodd"><path d="M176.24 176.18a102.91 102.91 0 0 1-76.44 30.16c-8.75-.29-10.94-10.72-6.79-17 17.92-27.07 75.72-28.09 101.23-60a56.23 56.23 0 0 0 10.57-21.88c.56-2.21 1.26-4.67 1.63-6.42a102.92 102.92 0 0 1-30.2 75.1z" fill="#03b2de" opacity=".48"/><path d="M176.18 176.24a102.92 102.92 0 0 0 30.16-76.44c-.29-8.76-10.73-10.94-17-6.79C168.21 107 163 145.3 146.5 173.56c-9.44 16.21-25.92 31.19-45.38 32.82a102.78 102.78 0 0 0 75.06-30.14z" fill="#8e03ff" opacity=".48"/><path d="M30.22 30.28A102.94 102.94 0 0 1 106.66.12c8.77.29 10.94 10.73 6.79 17-17.91 27.07-75.72 28.09-101.23 60A56.23 56.23 0 0 0 1.65 99c-.56 2.17-1.25 4.63-1.65 6.38a102.93 102.93 0 0 1 30.2-75.1z" fill="#00deb9" opacity=".48"/><path d="M30.28 30.22A102.94 102.94 0 0 0 .12 106.66c.29 8.77 10.73 10.94 17 6.79 27.07-17.91 28.09-75.72 60-101.23A56.23 56.23 0 0 1 99 1.65c2.21-.56 4.67-1.25 6.42-1.63a102.93 102.93 0 0 0-75.1 30.2z" fill="#1d88e1" opacity=".48"/><path d="M44 187.8c-32.11-55.4 181.83-82.46 145-142a103.71 103.71 0 0 0-26.5-27.07c25.84 44.36-100 69.18-138.89 106.54C12.3 136.12 10.9 151.63 20 164.34a103.82 103.82 0 0 0 24 23.46z" fill="#8e03ff" opacity=".48"/><path d="M187.75 44c-51.41-29.78-77.2 148.08-127.43 150-4.47.18-9.6-2-14.56-5a103.71 103.71 0 0 1-27.07-26.5C71.5 193.28 96.63 9 148.17 12.54c4.69.32 10.6 3.57 16.11 7.51a104.32 104.32 0 0 1 23.47 24z" fill="#1d88e1" opacity=".48"/></g></svg></svg> <!----></g></g> <g transform="translate(67,0)"><g data-gra="path-name" fill-rule="" class="tp-name iconsvg-namesvg" transform="translate(0,0)"><g transform="scale(1)"><g><path d="M1.3-38.34L7.79-38.34 7.79-8.64Q7.83-8.41 7.96-8.12 8.1-7.83 8.28-7.74L8.28-7.74Q8.41-7.65 9.07-7.69 9.72-7.74 10.89-8.23L10.89-8.23 13.5-2.34Q10.8-1.17 8.69-1.17L8.69-1.17Q6.57-1.17 5-2.16L5-2.16Q3.73-2.88 3.01-3.85 2.29-4.81 1.91-5.71 1.53-6.61 1.42-7.36 1.3-8.1 1.3-8.37L1.3-8.37 1.3-38.34ZM20.38-30.42L20.38-39.51 26.86-39.51 26.86-30.42 20.38-30.42ZM14.67 7.06L17.28 1.17Q18.5 1.67 19.13 1.71 19.75 1.75 19.93 1.67L19.93 1.67Q20.11 1.57 20.23 1.26 20.34 0.94 20.38 0.77L20.38 0.77 20.38-27.49 26.86-27.49 26.86 1.35Q26.86 1.48 26.73 2.18 26.59 2.88 26.21 3.78 25.83 4.68 25.11 5.63 24.39 6.57 23.17 7.29L23.17 7.29Q21.55 8.23 19.48 8.23L19.48 8.23Q18.41 8.23 17.19 7.96 15.97 7.69 14.67 7.06L14.67 7.06ZM45.63-38.52L45.63-32.09Q45.31-32.09 44.51-31.99 43.7-31.9 42.86-31.57 42.03-31.23 41.38-30.53 40.73-29.83 40.73-28.62L40.73-28.62 40.73-27.31 45.05-27.31 45.05-20.84 40.73-20.84 40.73-1.3 34.25-1.3 34.25-20.84 30.33-20.84 30.33-27.31 34.25-27.31 34.25-28.62Q34.25-31.72 35.8-34 37.35-36.27 40.32-37.48L40.32-37.48Q41.27-37.89 42.19-38.09 43.11-38.3 43.83-38.38 44.55-38.48 45.05-38.5 45.54-38.52 45.63-38.52L45.63-38.52ZM73.62 0.09L75.87 0.09 75.87-3.1 67.86-3.1 71.41-0.18 67.09 5.08 61.38 0.36 64.22-3.1 59.35-3.1 59.35-9.09 75.87-9.09 75.87-10.26 82.17-10.26 82.17-9.09 86.58-9.09 86.58-3.1 82.17-3.1 82.17 6.43 73.62 6.43 73.62 0.09ZM69.52-38.66L75.69-38.66 75.69-35.5 77.98-35.5 77.67-38.16 83.29-38.84 83.66-35.5 85.77-35.5 85.77-29.74 75.69-29.74 75.69-28.35 84.38-28.35 84.38-10.75 78.57-10.75 78.57-12.46 75.69-12.46 75.69-11.07 69.52-11.07 69.52-12.46 66.38-12.46 66.38-10.21 60.66-10.21 60.66-28.35 69.52-28.35 69.52-29.74 60.03-29.74 60.03-35.5 69.52-35.5 69.52-38.66ZM66.38-23.98L66.38-22.45 69.52-22.45 69.52-23.98 66.38-23.98ZM66.38-16.65L69.52-16.65 69.52-18.27 66.38-18.27 66.38-16.65ZM78.57-16.65L78.57-18.27 75.69-18.27 75.69-16.65 78.57-16.65ZM78.57-23.98L75.69-23.98 75.69-22.45 78.57-22.45 78.57-23.98ZM51.34 6.17L51.34-21.2 48.64-21.2 48.64-28.98 51.34-28.98 51.34-38.61 57.55-38.61 57.55-28.98 59.04-28.98 59.04-21.2 57.55-21.2 57.55 6.17 51.34 6.17ZM92.88-5.22L90.54-11.16 102.06-15.71 97.25-17.64 95.22-16.34 91.66-21.69 96.75-25.11 91.62-25.11 91.62-35.87 105.3-35.87 105.3-38.48 112.77-38.48 112.77-35.87 126.63-35.87 126.63-25.06 124.29-25.06 124.29-17.73 118.75-15.52 127.98-11.83 125.78-6.25 123.34-7.2 123.34 6.08 94.81 6.08 94.81-5.98 92.88-5.22ZM101.56 0.09L116.37 0.09 116.37-3.28 101.56-3.28 101.56 0.09ZM104.35-26.64L119.97-26.64 119.97-29.07 102.78-29.07 104.35-26.64ZM118.22-9.27L110.66-12.29 103-9.27 118.22-9.27ZM104.63-21.15L110.2-18.95 115.78-21.15 104.63-21.15ZM98.05-29.07L98.05-25.96 102.64-29.07 98.05-29.07Z" transform="translate(-1.2999999523162842, 39.5099983215332)"/></g> <!----> <!----> <!----> <!----> <!----> <!----> <!----></g></g> <g data-gra="path-slogan" fill-rule="" class="tp-slogan iconsvg-slogansvg" fill="#333" transform="translate(35.96500015258789,53.73999786376953)"><!----> <!----> <g transform="scale(1, 1)"><g transform="scale(1)"><path d="M0.89-8.58L2.06-8.58L2.06-1.03L6.42-1.03L6.42 0L0.89 0L0.89-8.58ZM6.84-1.92L6.84-2.77L7.92-2.77L7.92-2.16Q7.92-0.75 9.23-0.75L9.23-0.75Q10.59-0.75 10.59-2.25L10.59-2.25L10.59-8.58L11.77-8.58L11.77-2.30Q11.72 0.09 9.28 0.14L9.28 0.14Q6.98 0.09 6.84-1.92L6.84-1.92ZM19.08-3.89L14.86-3.89L14.86 0L13.69 0L13.69-8.58L19.64-8.58L19.64-7.59L14.86-7.59L14.86-4.92L19.08-4.92L19.08-3.89ZM27.38-7.64L25.31-7.64L25.31-4.97L27.38-4.97Q29.20-4.92 29.16-6.38L29.16-6.38Q29.16-7.64 27.38-7.64L27.38-7.64ZM27.84 0L24.14 0L24.14-8.58L27.94-8.58Q30.23-8.48 30.33-6.42L30.33-6.42Q30.33-5.16 29.20-4.64L29.20-4.64Q30.80-4.08 30.80-2.53L30.80-2.53Q30.66-0.09 27.84 0L27.84 0ZM27.56-3.98L25.31-3.98L25.31-0.98L27.80-0.98Q29.58-1.03 29.63-2.53L29.63-2.53Q29.63-3.98 27.56-3.98L27.56-3.98ZM32.11-8.58L33.28-8.58L33.28-1.03L37.64-1.03L37.64 0L32.11 0L32.11-8.58ZM45.56-4.27L45.56-4.27Q45.38-7.64 42.56-7.83L42.56-7.83Q39.70-7.69 39.56-4.27L39.56-4.27Q39.70-0.94 42.56-0.80L42.56-0.80Q45.38-0.98 45.56-4.27ZM46.73-4.27L46.73-4.27Q46.45 0 42.56 0.14L42.56 0.14Q38.63 0 38.34-4.27L38.34-4.27Q38.58-8.72 42.56-8.81L42.56-8.81Q46.45-8.67 46.73-4.27ZM54.52-3.61L51.89-3.61L51.89-4.59L55.64-4.59L55.64 0L54.89 0L54.61-1.08Q53.63 0.09 51.80 0.14L51.80 0.14Q50.06 0.14 49.13-0.75L49.13-0.75Q47.72-2.06 47.77-4.36L47.77-4.36Q48.09-8.63 51.84-8.81L51.84-8.81Q55.03-8.63 55.50-6L55.50-6L54.38-6Q53.91-7.78 51.80-7.83L51.80-7.83Q49.13-7.64 48.98-4.31L48.98-4.31Q48.98-0.75 51.84-0.75L51.84-0.75Q52.88-0.75 53.63-1.31L53.63-1.31Q54.56-2.06 54.52-3.61L54.52-3.61Z" transform="translate(-0.890625, 8.8125)"/></g></g></g></g></g><defs v-gra="od"/></svg>